<?xml version="1.0" encoding="UTF-8" standalone="no"?>
<!-- Created with Inkscape (http://www.inkscape.org/) -->

<svg
   width="100"
   height="100"
   viewBox="0 0 98.383832 252.84764"
   version="1.1"
   id="svg1"
   sodipodi:docname="title_bar_logo.svg"
   xml:space="preserve"
   inkscape:version="1.3.1 (9b9bdc1480, 2023-11-25, custom)"
   inkscape:export-filename="title_bar_logo.svg"
   inkscape:export-xdpi="109.9386"
   inkscape:export-ydpi="109.9386"
   xmlns:inkscape="http://www.inkscape.org/namespaces/inkscape"
   xmlns:sodipodi="http://sodipodi.sourceforge.net/DTD/sodipodi-0.dtd"
   xmlns:xlink="http://www.w3.org/1999/xlink"
   xmlns="http://www.w3.org/2000/svg"
   xmlns:svg="http://www.w3.org/2000/svg"><sodipodi:namedview
     id="namedview1"
     pagecolor="#505050"
     bordercolor="#eeeeee"
     borderopacity="1"
     inkscape:showpageshadow="0"
     inkscape:pageopacity="0"
     inkscape:pagecheckerboard="0"
     inkscape:deskcolor="#505050"
     showgrid="false"
     inkscape:zoom="2.8359459"
     inkscape:cx="10.225865"
     inkscape:cy="77.046602"
     inkscape:window-width="1366"
     inkscape:window-height="731"
     inkscape:window-x="0"
     inkscape:window-y="0"
     inkscape:window-maximized="1"
     inkscape:current-layer="g1" /><defs
     id="defs1"><linearGradient
       id="swatch1"
       inkscape:swatch="solid"><stop
         style="stop-color:#000000;stop-opacity:0.99094141;"
         offset="0"
         id="stop1" /></linearGradient><clipPath
       clipPathUnits="userSpaceOnUse"
       id="clipPath21"><use
         x="0"
         y="0"
         xlink:href="#path6"
         id="use22" /></clipPath><linearGradient
       inkscape:collect="always"
       xlink:href="#swatch1"
       id="linearGradient1"
       x1="-189.19192"
       y1="-132.79048"
       x2="-90.808084"
       y2="-132.79048"
       gradientUnits="userSpaceOnUse" /><linearGradient
       inkscape:collect="always"
       xlink:href="#swatch1"
       id="linearGradient2"
       gradientUnits="userSpaceOnUse"
       x1="-189.19192"
       y1="-132.79048"
       x2="-90.808084"
       y2="-132.79048" /><linearGradient
       inkscape:collect="always"
       xlink:href="#swatch1"
       id="linearGradient3"
       gradientUnits="userSpaceOnUse"
       x1="-189.19192"
       y1="-132.79048"
       x2="-90.808084"
       y2="-132.79048" /><linearGradient
       inkscape:collect="always"
       xlink:href="#swatch1"
       id="linearGradient4"
       gradientUnits="userSpaceOnUse"
       x1="-189.19192"
       y1="-132.79048"
       x2="-90.808084"
       y2="-132.79048" /><linearGradient
       inkscape:collect="always"
       xlink:href="#swatch1"
       id="linearGradient5"
       gradientUnits="userSpaceOnUse"
       x1="-189.19192"
       y1="-132.79048"
       x2="-90.808084"
       y2="-132.79048" /><linearGradient
       inkscape:collect="always"
       xlink:href="#swatch1"
       id="linearGradient6"
       gradientUnits="userSpaceOnUse"
       x1="-189.19192"
       y1="-132.79048"
       x2="-90.808084"
       y2="-132.79048" /><linearGradient
       inkscape:collect="always"
       xlink:href="#swatch1"
       id="linearGradient7"
       gradientUnits="userSpaceOnUse"
       x1="-189.19192"
       y1="-132.79048"
       x2="-90.808084"
       y2="-132.79048" /><linearGradient
       inkscape:collect="always"
       xlink:href="#swatch1"
       id="linearGradient8"
       gradientUnits="userSpaceOnUse"
       x1="-189.19192"
       y1="-132.79048"
       x2="-90.808084"
       y2="-132.79048" /><linearGradient
       inkscape:collect="always"
       xlink:href="#swatch1"
       id="linearGradient9"
       gradientUnits="userSpaceOnUse"
       x1="-189.19192"
       y1="-132.79048"
       x2="-90.808084"
       y2="-132.79048" /><linearGradient
       inkscape:collect="always"
       xlink:href="#swatch1"
       id="linearGradient10"
       gradientUnits="userSpaceOnUse"
       x1="-189.19192"
       y1="-132.79048"
       x2="-90.808084"
       y2="-132.79048" /><linearGradient
       inkscape:collect="always"
       xlink:href="#swatch1"
       id="linearGradient11"
       gradientUnits="userSpaceOnUse"
       x1="-189.19192"
       y1="-132.79048"
       x2="-90.808084"
       y2="-132.79048" /></defs><g
     id="g1"
     transform="matrix(0.77715026,0,0,0.76219072,331.92582,-188.30442)"><circle
       style="fill:none;stroke:#ff9b55;stroke-width:25.3;stroke-dasharray:none;stroke-opacity:1"
       id="path5"
       cx="-385.98199"
       cy="397.09689"
       r="102.07745"
       inkscape:export-filename="title_bar_logo.svg"
       inkscape:export-xdpi="109.9386"
       inkscape:export-ydpi="109.9386" /><ellipse
       style="fill:#ff9955;stroke:#ff9b55;stroke-width:44.1;stroke-dasharray:none;stroke-opacity:1"
       id="path6"
       cx="-385.98199"
       cy="397.09689"
       rx="48.460312"
       ry="47.389263" /><use
       x="0"
       y="0"
       xlink:href="#path5"
       id="use20"
       clip-path="url(#clipPath21)" /><g
       id="g42"
       transform="matrix(0.78417197,0,0,0.93654732,-183.08415,525.13588)"
       style="stroke:url(#linearGradient1)"><g
         id="g41"
         style="stroke:url(#linearGradient11);stroke-width:18.3;stroke-dasharray:none"><g
           id="g39"
           style="stroke:url(#linearGradient9);stroke-width:18.3;stroke-dasharray:none"><g
             id="g33"
             transform="translate(4.773313,-0.51602606)"
             style="stroke:url(#linearGradient7);stroke-width:18.3;stroke-dasharray:none;stroke-opacity:1"><path
               d="m -135.00003,-167.34844 c -2.04459,10.72549 -8.99653,26.31536 0,23.92929 z"
               style="fill:#ff9955;stroke:url(#linearGradient2);stroke-width:18.3;stroke-linecap:round;stroke-linejoin:round;stroke-dasharray:none;stroke-opacity:1;paint-order:stroke fill markers"
               id="path32" /><path
               d="m -155.1466,-108.58407 v -34.83508 c -0.19668,-0.0522 -0.38521,-0.0952 -0.59738,-0.16485 -19.5553,-6.41597 -4.02379,3.81713 -1.45004,13.58418 1.16464,4.41966 1.76576,12.03257 2.04742,21.41575 z"
               style="fill:#ff9955;stroke:url(#linearGradient3);stroke-width:18.3;stroke-linecap:round;stroke-linejoin:round;stroke-dasharray:none;stroke-opacity:1;paint-order:stroke fill markers"
               id="path30" /><path
               d="m -135.00003,-143.41915 v 34.83508 c 0.28166,-9.38318 0.88278,-16.99609 2.04742,-21.41575 2.57375,-9.76705 18.10527,-20.00014 -1.45004,-13.58418 -0.21217,0.0696 -0.4007,0.11268 -0.59738,0.16485 z"
               style="fill:#ff9955;stroke:url(#linearGradient4);stroke-width:18.3;stroke-linecap:round;stroke-linejoin:round;stroke-dasharray:none;stroke-opacity:1;paint-order:stroke fill markers"
               id="path33" /><path
               d="m -155.1466,-143.41915 c 8.99653,2.38607 2.04458,-13.2038 0,-23.92929 z"
               style="fill:#ff9955;stroke:url(#linearGradient5);stroke-width:18.3;stroke-linecap:round;stroke-linejoin:round;stroke-dasharray:none;stroke-opacity:1;paint-order:stroke fill markers"
               id="path31" /><path
               d="m -144.77331,-189.48397 c -5.6026,0.17678 -10.37329,10.41138 -10.37329,17.54253 v 4.593 c 2.04458,10.72549 8.99653,26.31536 0,23.92929 v 34.83508 c 0.33287,11.089124 0.21309,24.679107 0,38.675159 v 41.850159 c 0,7.131145 4.47068,12.881336 10.07328,13.058117 5.60261,-0.176781 10.07329,-5.926972 10.07329,-13.058117 v -41.850159 c -0.2131,-13.996051 -0.33287,-27.586037 0,-38.675159 v -34.83508 c -8.99653,2.38607 -2.04459,-13.2038 0,-23.92929 v -4.593 c 0,-7.13115 -4.17067,-17.36575 -9.77328,-17.54253 z"
               style="fill:#ff9955;stroke:url(#linearGradient6);stroke-width:18.3;stroke-linecap:round;stroke-linejoin:round;stroke-dasharray:none;stroke-opacity:1;paint-order:stroke fill markers"
               id="path29" /></g><path
             id="path22"
             style="display:inline;fill:#ff9955;stroke:url(#linearGradient8);stroke-width:18.3;stroke-linecap:round;stroke-linejoin:round;stroke-dasharray:none;paint-order:stroke fill markers"
             d="M -99.958084,-190.03215 A 40.041916,60.03215 0 0 1 -140,-130 40.041916,60.03215 0 0 1 -180.04192,-190.03215 40.041916,60.03215 0 0 1 -140,-250.0643 a 40.041916,60.03215 0 0 1 40.041916,60.03215 z" /></g><rect
           style="fill:#ff9955;stroke:url(#linearGradient10);stroke-width:0;stroke-linecap:round;stroke-linejoin:miter;stroke-dasharray:none;stroke-opacity:1;paint-order:stroke fill markers"
           id="rect40"
           width="20.526745"
           height="33.347153"
           x="-150.43068"
           y="-147.8398"
           ry="0" /></g></g></g></svg>
